<?xml version="1.0" encoding="UTF-8"?>
<svg id="Layer_2" data-name="Layer 2" xmlns="http://www.w3.org/2000/svg" viewBox="0 0 2000 1000">
  <defs>
    <style>
      .cls-1 {
        fill: #f5f5f5;
      }

      .cls-2 {
        fill: #252525;
      }
    </style>
  </defs>
  <g id="Layer_1-2" data-name="Layer 1">
    <g id="MyLogo">
      <path class="cls-2" d="m1796.48,1000H0S201.08,120.48,201.08,120.48C216.29,53.94,298.56,0,384.84,0h1484.05c86.28,0,143.88,53.94,128.67,120.48l-201.08,879.52Z"/>
      <g>
        <path class="cls-1" d="m394.08,48.19h349.79s-206.59,903.61-206.59,903.61h-218.7S489.63,203.61,489.63,203.61h-24.99s-171.06,748.19-171.06,748.19H74.88S261.61,135.04,261.61,135.04c10.97-47.97,70.27-86.85,132.46-86.85Z"/>
        <path class="cls-1" d="m768.86,48.19h218.7s-170.78,746.99-170.78,746.99h24.99S1012.56,48.19,1012.56,48.19h206.21s-170.78,746.99-170.78,746.99h24.99S1243.75,48.19,1243.75,48.19h218.7s-206.59,903.61-206.59,903.61h-693.6S768.86,48.19,768.86,48.19Z"/>
        <path class="cls-1" d="m1513.6,890.36l-14.05,61.45h-218.7S1487.44,48.19,1487.44,48.19h348.9c58.37,0,97.35,36.5,87.06,81.51l-133.96,585.96h-210.89s117.07-512.05,117.07-512.05h-24.99s-121.47,531.33-121.47,531.33h235.89s-35.53,155.42-35.53,155.42h-235.89Z"/>
      </g>
    </g>
  </g>
</svg>